<svg xmlns="http://www.w3.org/2000/svg" viewBox="0 0 512.001 512.001"><g fill="white"><path d="M106.689.001c-5.891 0-10.667 4.776-10.667 10.667v42.667c0 5.891 4.776 10.667 10.667 10.667s10.667-4.776 10.667-10.667V10.667c0-5.891-4.776-10.666-10.667-10.666z"/><path d="M149.355 42.667h-42.667c-5.891 0-10.667-4.776-10.667-10.667s4.776-10.667 10.667-10.667h42.667c5.891 0 10.667 4.776 10.667 10.667s-4.775 10.667-10.667 10.667z"/><path d="M149.355 64.001c-5.891 0-10.667-4.776-10.667-10.667V10.667C138.688 4.776 143.464 0 149.355 0s10.667 4.776 10.667 10.667v42.667c0 5.891-4.775 10.667-10.667 10.667zM234.689 21.334h-42.667c-5.891 0-10.667-4.776-10.667-10.667S186.131 0 192.022 0h42.667c5.891 0 10.667 4.776 10.667 10.667s-4.776 10.667-10.667 10.667z"/><path d="M213.355 64.001c-5.891 0-10.667-4.776-10.667-10.667V10.667C202.688 4.776 207.464 0 213.355 0s10.667 4.776 10.667 10.667v42.667c0 5.891-4.775 10.667-10.667 10.667zM341.355 64.001c-5.891 0-10.667-4.776-10.667-10.667V42.667l-12.8 17.067c-3.878 4.713-10.842 5.39-15.555 1.512a11.023 11.023 0 0 1-1.512-1.512l-12.8-17.067v10.667c0 5.891-4.776 10.667-10.667 10.667s-10.667-4.776-10.667-10.667V10.667C266.687 4.776 271.463 0 277.354 0c3.357 0 6.519 1.581 8.533 4.267l23.467 31.275 23.467-31.275c3.535-4.713 10.221-5.668 14.933-2.133a10.666 10.666 0 0 1 4.267 8.533v42.667c.001 5.891-4.774 10.667-10.666 10.667zM416.022 64.001h-32c-5.891 0-10.667-4.776-10.667-10.667V10.667C373.355 4.776 378.131 0 384.022 0s10.667 4.776 10.667 10.667v32h21.333c5.891 0 10.667 4.776 10.667 10.667s-4.776 10.667-10.667 10.667z"/></g><path d="M434.582 110.166a10.666 10.666 0 0 0-7.893-3.499H85.355c-5.891-.026-10.688 4.728-10.714 10.619-.002.351.014.701.047 1.05l32 341.333a10.668 10.668 0 0 0 7.701 9.259l149.333 42.667c.964.274 1.963.41 2.965.405a10.995 10.995 0 0 0 3.371-.533l128-42.667a10.667 10.667 0 0 0 7.253-9.131l32-341.333a10.654 10.654 0 0 0-2.729-8.17z" fill="white"/><path d="M266.689 426.667a10.675 10.675 0 0 1-2.923-.427L189.1 404.907a10.666 10.666 0 0 1-7.424-7.659l-10.667-42.667c-1.558-5.681 1.785-11.55 7.466-13.108 5.681-1.558 11.55 1.785 13.108 7.466.044.159.083.318.119.479l9.173 36.693 65.579 18.731 54.315-18.112 8.789-88.064H170.689a10.667 10.667 0 0 1-10.667-9.323l-10.667-85.333c-.742-5.844 3.393-11.183 9.237-11.926.474-.06.952-.089 1.429-.085h202.667c5.891 0 10.667 4.776 10.667 10.667s-4.776 10.667-10.667 10.667H172.097l8 64h161.259c5.891-.03 10.69 4.722 10.72 10.613.002.374-.016.748-.053 1.12l-10.667 106.667a10.669 10.669 0 0 1-7.232 9.067l-64 21.333c-1.11.359-2.269.54-3.435.534z" fill="#ff5722"/></svg>
