g Exported Mesh Combined Mesh 
v 24.54702 31.02477 -22.98122
v -15.15639 -8.678635 -22.98113
v -15.15639 31.02477 -22.98122
v 24.54702 -8.678635 -22.98113
v -15.14824 37.50001 -25
v -15.14823 -12.5 25
v -15.14835 37.50001 25
v -15.14812 -12.5 -25
v 24.85428 37.50467 25.00416
v 24.85456 -12.49537 -24.99584
v 24.85444 37.50467 -24.99584
v 24.8544 -12.49537 25.00416
v -14.30452 31.79819 24.01967
v 24.28255 -6.788893 24.01978
v 24.28255 31.79819 24.01969
v -14.30452 -6.788893 24.01975

vn 0 2.292444E-06 1
vn 0 2.292444E-06 1
vn 0 2.292444E-06 1
vn 0 2.292444E-06 1
vn 1 2.400331E-06 2.205372E-06
vn 1 2.400331E-06 2.205372E-06
vn 1 2.400331E-06 2.205372E-06
vn 1 2.400331E-06 2.205372E-06
vn -1 -2.40033E-06 -3.218651E-06
vn -1 -2.40033E-06 -3.218651E-06
vn -1 -2.40033E-06 -3.218651E-06
vn -1 -2.40033E-06 -3.218651E-06
vn 7.152558E-07 -2.292444E-06 -1
vn 7.152558E-07 -2.292444E-06 -1
vn 7.152558E-07 -2.292444E-06 -1
vn 7.152558E-07 -2.292444E-06 -1

vt 0 0
vt 1 1
vt 1 0
vt 0 1
vt 0 0
vt 1 1
vt 1 0
vt 0 1
vt 0 0
vt 1 1
vt 1 0
vt 0 1
vt 0 0
vt 1 1
vt 1 0
vt 0 1

vt1 0 0
vt1 0 0
vt1 0 0
vt1 0 0
vt1 0 0
vt1 0 0
vt1 0 0
vt1 0 0
vt1 0 0
vt1 0 0
vt1 0 0
vt1 0 0
vt1 0 0
vt1 0 0
vt1 0 0
vt1 0 0

vt2 0 0
vt2 0 0
vt2 0 0
vt2 0 0
vt2 0 0
vt2 0 0
vt2 0 0
vt2 0 0
vt2 0 0
vt2 0 0
vt2 0 0
vt2 0 0
vt2 0 0
vt2 0 0
vt2 0 0
vt2 0 0

vc 1 1 1 1
vc 1 1 1 1
vc 1 1 1 1
vc 1 1 1 1
vc 1 1 1 1
vc 1 1 1 1
vc 1 1 1 1
vc 1 1 1 1
vc 1 1 1 1
vc 1 1 1 1
vc 1 1 1 1
vc 1 1 1 1
vc 1 1 1 1
vc 1 1 1 1
vc 1 1 1 1
vc 1 1 1 1
f 1/1/1 3/3/3 2/2/2
f 2/2/2 4/4/4 1/1/1
f 5/5/5 7/7/7 6/6/6
f 6/6/6 8/8/8 5/5/5
f 9/9/9 11/11/11 10/10/10
f 10/10/10 12/12/12 9/9/9
f 13/13/13 15/15/15 14/14/14
f 14/14/14 16/16/16 13/13/13

