<svg xmlns="http://www.w3.org/2000/svg" viewBox="0 0 512.002 512.002"><g fill="white"><path d="M309.446 512c17.119 0 32.048-14.929 32.048-32.048v-74.846h21.399c12.841 0 21.399-8.561 21.399-21.399v-213.77H127.708v213.772c0 12.839 8.56 21.399 21.399 21.399h21.401v74.846c0 17.119 14.925 32.048 32.048 32.048 17.117 0 32.045-14.929 32.045-32.048v-74.846H277.4v74.846C277.398 497.071 292.327 512 309.446 512zM437.74 383.709c17.119 0 32.045-14.927 32.045-32.048v-149.69c0-17.029-14.925-32.034-32.045-32.034-17.121 0-32.048 15.006-32.048 32.034v149.69c0 17.119 14.926 32.048 32.048 32.048zM74.261 383.709c17.121 0 32.048-14.927 32.048-32.048v-149.69c0-17.029-14.925-32.034-32.048-32.034-17.119 0-32.045 15.006-32.045 32.034v149.69c.001 17.119 14.926 32.048 32.045 32.048zM358.611 3.229c-4.278-4.305-10.647-4.305-14.925 0l-28.701 28.605-1.324 1.322c-17.018-8.522-36.099-12.778-57.347-12.819-.104 0-.207-.003-.311-.003H256c-.108 0-.207.003-.314.003-21.247.041-40.327 4.297-57.344 12.819l-1.327-1.322-28.701-28.605c-4.281-4.305-10.647-4.305-14.925 0-4.281 4.281-4.281 10.635 0 14.913l27.763 27.768c-8.946 5.973-17.058 13.282-24.112 21.642-16.888 20.018-27.661 46.071-29.142 74.299-.014.294-.043.584-.056.878a122.526 122.526 0 0 0-.133 5.794h256.583c0-1.939-.046-3.871-.133-5.794-.014-.294-.043-.584-.06-.878-1.478-28.228-12.253-54.282-29.142-74.297-7.051-8.36-15.166-15.669-24.112-21.642l27.766-27.768c4.282-4.28 4.282-10.633 0-14.915zM202.515 111.16c-8.853 0-16.031-7.177-16.031-16.031s7.177-16.031 16.031-16.031c8.853 0 16.031 7.177 16.031 16.031s-7.178 16.031-16.031 16.031zm106.97 0c-8.853 0-16.031-7.177-16.031-16.031s7.177-16.031 16.031-16.031c8.853 0 16.031 7.177 16.031 16.031s-7.177 16.031-16.031 16.031z"/></g></svg>
