g Exported Mesh Combined Mesh 
v -8.40887 0.02464747 19.80415
v -9.355585 0.02464747 16.95745
v -8.40887 3.024647 19.80415
v -9.355585 3.024647 16.95745
v -11.25558 3.024647 20.75087
v -12.20229 3.024647 17.90416
v -11.25558 0.02464747 20.75087
v -12.20229 0.02464747 17.90416
v -8.40887 3.024647 19.80415
v -9.355585 3.024647 16.95745
v -11.25558 3.024647 20.75087
v -12.20229 3.024647 17.90416
v -11.25558 0.02464747 20.75087
v -8.40887 0.02464747 19.80415
v -9.355585 0.02464747 16.95745
v -12.20229 0.02464747 17.90416
v -9.355585 0.02464747 16.95745
v -9.355585 3.024647 16.95745
v -12.20229 3.024647 17.90416
v -12.20229 0.02464747 17.90416
v -11.25558 0.02464747 20.75087
v -11.25558 3.024647 20.75087
v -8.40887 3.024647 19.80415
v -8.40887 0.02464747 19.80415
v -11.8919 3.024644 -13.19748
v -8.967207 3.024647 -12.52953
v -11.22396 3.024648 -16.12218
v -8.299259 3.024651 -15.45423
v -11.22395 0.0246485 -16.12218
v -8.299255 0.0246511 -15.45423
v -11.8919 0.02464385 -13.19748
v -8.967203 0.02464645 -12.52954
v -11.22396 3.024648 -16.12218
v -8.299259 3.024651 -15.45423
v -11.22395 0.0246485 -16.12218
v -8.299255 0.0246511 -15.45423
v -11.8919 0.02464385 -13.19748
v -11.8919 3.024644 -13.19748
v -8.967207 3.024647 -12.52953
v -8.967203 0.02464645 -12.52954
v -8.967207 3.024647 -12.52953
v -8.299259 3.024651 -15.45423
v -8.299255 0.0246511 -15.45423
v -8.967203 0.02464645 -12.52954
v -11.8919 0.02464385 -13.19748
v -11.22395 0.0246485 -16.12218
v -11.22396 3.024648 -16.12218
v -11.8919 3.024644 -13.19748
v -5.170763 0.02464747 -16.71425
v -6.443972 0.02464747 -19.43068
v -5.170763 3.024647 -16.71425
v -6.443972 3.024647 -19.43068
v -7.887184 3.024647 -15.44105
v -9.160393 3.024647 -18.15747
v -7.887184 0.02464747 -15.44105
v -9.160393 0.02464747 -18.15747
v -5.170763 3.024647 -16.71425
v -6.443972 3.024647 -19.43068
v -7.887184 3.024647 -15.44105
v -9.160393 3.024647 -18.15747
v -7.887184 0.02464747 -15.44105
v -5.170763 0.02464747 -16.71425
v -6.443972 0.02464747 -19.43068
v -9.160393 0.02464747 -18.15747
v -6.443972 0.02464747 -19.43068
v -6.443972 3.024647 -19.43068
v -9.160393 3.024647 -18.15747
v -9.160393 0.02464747 -18.15747
v -7.887184 0.02464747 -15.44105
v -7.887184 3.024647 -15.44105
v -5.170763 3.024647 -16.71425
v -5.170763 0.02464747 -16.71425
v 22.77869 0.02464747 -13.87108
v 21.08921 0.02464747 -16.35012
v 22.77869 3.024647 -13.87108
v 21.08921 3.024647 -16.35012
v 20.29965 3.024647 -12.1816
v 18.61017 3.024647 -14.66064
v 20.29965 0.02464747 -12.1816
v 18.61017 0.02464747 -14.66064
v 22.77869 3.024647 -13.87108
v 21.08921 3.024647 -16.35012
v 20.29965 3.024647 -12.1816
v 18.61017 3.024647 -14.66064
v 20.29965 0.02464747 -12.1816
v 22.77869 0.02464747 -13.87108
v 21.08921 0.02464747 -16.35012
v 18.61017 0.02464747 -14.66064
v 21.08921 0.02464747 -16.35012
v 21.08921 3.024647 -16.35012
v 18.61017 3.024647 -14.66064
v 18.61017 0.02464747 -14.66064
v 20.29965 0.02464747 -12.1816
v 20.29965 3.024647 -12.1816
v 22.77869 3.024647 -13.87108
v 22.77869 0.02464747 -13.87108
v 21.04296 0.02464747 19.08107
v 22.05135 0.02464747 16.25562
v 21.04296 3.024647 19.08107
v 22.05135 3.024647 16.25562
v 18.21752 3.024647 18.07269
v 19.2259 3.024647 15.24724
v 18.21752 0.02464747 18.07269
v 19.2259 0.02464747 15.24724
v 21.04296 3.024647 19.08107
v 22.05135 3.024647 16.25562
v 18.21752 3.024647 18.07269
v 19.2259 3.024647 15.24724
v 18.21752 0.02464747 18.07269
v 21.04296 0.02464747 19.08107
v 22.05135 0.02464747 16.25562
v 19.2259 0.02464747 15.24724
v 22.05135 0.02464747 16.25562
v 22.05135 3.024647 16.25562
v 19.2259 3.024647 15.24724
v 19.2259 0.02464747 15.24724
v 18.21752 0.02464747 18.07269
v 18.21752 3.024647 18.07269
v 21.04296 3.024647 19.08107
v 21.04296 0.02464747 19.08107

vn 0.9489018 0 -0.3155716
vn 0.9489018 0 -0.3155716
vn 0.9489018 0 -0.3155716
vn 0.9489018 0 -0.3155716
vn 0 1 0
vn 0 1 0
vn -0.9489018 0 0.3155716
vn -0.9489018 0 0.3155716
vn 0 1 0
vn 0 1 0
vn -0.9489018 0 0.3155716
vn -0.9489018 0 0.3155716
vn 0 -1 0
vn 0 -1 0
vn 0 -1 0
vn 0 -1 0
vn -0.3155716 0 -0.9489018
vn -0.3155716 0 -0.9489018
vn -0.3155716 0 -0.9489018
vn -0.3155716 0 -0.9489018
vn 0.3155716 0 0.9489018
vn 0.3155716 0 0.9489018
vn 0.3155716 0 0.9489018
vn 0.3155716 0 0.9489018
vn -1.187617E-06 1 1.318392E-06
vn -1.187617E-06 1 1.318392E-06
vn -1.187617E-06 1 1.318392E-06
vn -1.187617E-06 1 1.318392E-06
vn 0.2226492 1.54298E-06 -0.9748986
vn 0.2226492 1.54298E-06 -0.9748986
vn 1.187617E-06 -1 -1.318392E-06
vn 1.187617E-06 -1 -1.318392E-06
vn 0.2226492 1.54298E-06 -0.9748986
vn 0.2226492 1.54298E-06 -0.9748986
vn 1.187617E-06 -1 -1.318392E-06
vn 1.187617E-06 -1 -1.318392E-06
vn -0.2226492 -1.54298E-06 0.9748986
vn -0.2226492 -1.54298E-06 0.9748986
vn -0.2226492 -1.54298E-06 0.9748986
vn -0.2226492 -1.54298E-06 0.9748986
vn 0.9748986 8.762466E-07 0.2226492
vn 0.9748986 8.762466E-07 0.2226492
vn 0.9748986 8.762466E-07 0.2226492
vn 0.9748986 8.762466E-07 0.2226492
vn -0.9748986 -8.762466E-07 -0.2226492
vn -0.9748986 -8.762466E-07 -0.2226492
vn -0.9748986 -8.762466E-07 -0.2226492
vn -0.9748986 -8.762466E-07 -0.2226492
vn 0.9054736 0 -0.4244028
vn 0.9054736 0 -0.4244028
vn 0.9054736 0 -0.4244028
vn 0.9054736 0 -0.4244028
vn 0 1 0
vn 0 1 0
vn -0.9054736 0 0.4244028
vn -0.9054736 0 0.4244028
vn 0 1 0
vn 0 1 0
vn -0.9054736 0 0.4244028
vn -0.9054736 0 0.4244028
vn 0 -1 0
vn 0 -1 0
vn 0 -1 0
vn 0 -1 0
vn -0.4244028 0 -0.9054735
vn -0.4244028 0 -0.9054735
vn -0.4244028 0 -0.9054735
vn -0.4244028 0 -0.9054735
vn 0.4244028 0 0.9054735
vn 0.4244028 0 0.9054735
vn 0.4244028 0 0.9054735
vn 0.4244028 0 0.9054735
vn 0.8263468 0 -0.5631616
vn 0.8263468 0 -0.5631616
vn 0.8263468 0 -0.5631616
vn 0.8263468 0 -0.5631616
vn 0 1 0
vn 0 1 0
vn -0.8263468 0 0.5631616
vn -0.8263468 0 0.5631616
vn 0 1 0
vn 0 1 0
vn -0.8263468 0 0.5631616
vn -0.8263468 0 0.5631616
vn 0 -1 0
vn 0 -1 0
vn 0 -1 0
vn 0 -1 0
vn -0.5631616 0 -0.8263468
vn -0.5631616 0 -0.8263468
vn -0.5631616 0 -0.8263468
vn -0.5631616 0 -0.8263468
vn 0.5631616 0 0.8263468
vn 0.5631616 0 0.8263468
vn 0.5631616 0 0.8263468
vn 0.5631616 0 0.8263468
vn 0.941816 0 0.336129
vn 0.941816 0 0.336129
vn 0.941816 0 0.336129
vn 0.941816 0 0.336129
vn 0 1 0
vn 0 1 0
vn -0.941816 0 -0.336129
vn -0.941816 0 -0.336129
vn 0 1 0
vn 0 1 0
vn -0.941816 0 -0.336129
vn -0.941816 0 -0.336129
vn 0 -1 0
vn 0 -1 0
vn 0 -1 0
vn 0 -1 0
vn 0.336129 0 -0.941816
vn 0.336129 0 -0.941816
vn 0.336129 0 -0.941816
vn 0.336129 0 -0.941816
vn -0.336129 0 0.941816
vn -0.336129 0 0.941816
vn -0.336129 0 0.941816
vn -0.336129 0 0.941816

vt 0 0
vt 1 0
vt 0 1
vt 1 1
vt 0 1
vt 1 1
vt 0 1
vt 1 1
vt 0 0
vt 1 0
vt 0 0
vt 1 0
vt 0 0
vt 0 1
vt 1 1
vt 1 0
vt 0 0
vt 0 1
vt 1 1
vt 1 0
vt 0 0
vt 0 1
vt 1 1
vt 1 0
vt 0 0
vt 1 0
vt 0 1
vt 1 1
vt 0 1
vt 1 1
vt 0 1
vt 1 1
vt 0 0
vt 1 0
vt 0 0
vt 1 0
vt 0 0
vt 0 1
vt 1 1
vt 1 0
vt 0 0
vt 0 1
vt 1 1
vt 1 0
vt 0 0
vt 0 1
vt 1 1
vt 1 0
vt 0 0
vt 1 0
vt 0 1
vt 1 1
vt 0 1
vt 1 1
vt 0 1
vt 1 1
vt 0 0
vt 1 0
vt 0 0
vt 1 0
vt 0 0
vt 0 1
vt 1 1
vt 1 0
vt 0 0
vt 0 1
vt 1 1
vt 1 0
vt 0 0
vt 0 1
vt 1 1
vt 1 0
vt 0 0
vt 1 0
vt 0 1
vt 1 1
vt 0 1
vt 1 1
vt 0 1
vt 1 1
vt 0 0
vt 1 0
vt 0 0
vt 1 0
vt 0 0
vt 0 1
vt 1 1
vt 1 0
vt 0 0
vt 0 1
vt 1 1
vt 1 0
vt 0 0
vt 0 1
vt 1 1
vt 1 0
vt 0 0
vt 1 0
vt 0 1
vt 1 1
vt 0 1
vt 1 1
vt 0 1
vt 1 1
vt 0 0
vt 1 0
vt 0 0
vt 1 0
vt 0 0
vt 0 1
vt 1 1
vt 1 0
vt 0 0
vt 0 1
vt 1 1
vt 1 0
vt 0 0
vt 0 1
vt 1 1
vt 1 0

vt1 0.6909865 0.3471644
vt1 0.9966581 0.3471644
vt1 0.6909865 0.6528358
vt1 0.9966581 0.6528358
vt1 0.3097273 0.3471642
vt1 0.004055766 0.3471642
vt1 0.3471642 0.6528358
vt1 0.6528358 0.6528358
vt1 0.3097273 0.6528358
vt1 0.004055766 0.6528358
vt1 0.3471642 0.3471642
vt1 0.6528358 0.3471642
vt1 0.3471642 0.004055766
vt1 0.3471642 0.3097273
vt1 0.6528358 0.3097273
vt1 0.6528358 0.004055766
vt1 0.6902728 0.3097273
vt1 0.9959443 0.3097273
vt1 0.9959443 0.004055766
vt1 0.6902728 0.004055766
vt1 0.3097273 0.004055766
vt1 0.004055766 0.004055766
vt1 0.004055766 0.3097273
vt1 0.3097273 0.3097273
vt1 0.6909865 0.3471644
vt1 0.9966581 0.3471644
vt1 0.6909865 0.6528358
vt1 0.9966581 0.6528358
vt1 0.3097273 0.3471642
vt1 0.004055766 0.3471642
vt1 0.3471642 0.6528358
vt1 0.6528358 0.6528358
vt1 0.3097273 0.6528358
vt1 0.004055766 0.6528358
vt1 0.3471642 0.3471642
vt1 0.6528358 0.3471642
vt1 0.3471642 0.004055766
vt1 0.3471642 0.3097273
vt1 0.6528358 0.3097273
vt1 0.6528358 0.004055766
vt1 0.6902728 0.3097273
vt1 0.9959443 0.3097273
vt1 0.9959443 0.004055766
vt1 0.6902728 0.004055766
vt1 0.3097273 0.004055766
vt1 0.004055766 0.004055766
vt1 0.004055766 0.3097273
vt1 0.3097273 0.3097273
vt1 0.6909865 0.3471644
vt1 0.9966581 0.3471644
vt1 0.6909865 0.6528358
vt1 0.9966581 0.6528358
vt1 0.3097273 0.3471642
vt1 0.004055766 0.3471642
vt1 0.3471642 0.6528358
vt1 0.6528358 0.6528358
vt1 0.3097273 0.6528358
vt1 0.004055766 0.6528358
vt1 0.3471642 0.3471642
vt1 0.6528358 0.3471642
vt1 0.3471642 0.004055766
vt1 0.3471642 0.3097273
vt1 0.6528358 0.3097273
vt1 0.6528358 0.004055766
vt1 0.6902728 0.3097273
vt1 0.9959443 0.3097273
vt1 0.9959443 0.004055766
vt1 0.6902728 0.004055766
vt1 0.3097273 0.004055766
vt1 0.004055766 0.004055766
vt1 0.004055766 0.3097273
vt1 0.3097273 0.3097273
vt1 0.6909865 0.3471644
vt1 0.9966581 0.3471644
vt1 0.6909865 0.6528358
vt1 0.9966581 0.6528358
vt1 0.3097273 0.3471642
vt1 0.004055766 0.3471642
vt1 0.3471642 0.6528358
vt1 0.6528358 0.6528358
vt1 0.3097273 0.6528358
vt1 0.004055766 0.6528358
vt1 0.3471642 0.3471642
vt1 0.6528358 0.3471642
vt1 0.3471642 0.004055766
vt1 0.3471642 0.3097273
vt1 0.6528358 0.3097273
vt1 0.6528358 0.004055766
vt1 0.6902728 0.3097273
vt1 0.9959443 0.3097273
vt1 0.9959443 0.004055766
vt1 0.6902728 0.004055766
vt1 0.3097273 0.004055766
vt1 0.004055766 0.004055766
vt1 0.004055766 0.3097273
vt1 0.3097273 0.3097273
vt1 0.6909865 0.3471644
vt1 0.9966581 0.3471644
vt1 0.6909865 0.6528358
vt1 0.9966581 0.6528358
vt1 0.3097273 0.3471642
vt1 0.004055766 0.3471642
vt1 0.3471642 0.6528358
vt1 0.6528358 0.6528358
vt1 0.3097273 0.6528358
vt1 0.004055766 0.6528358
vt1 0.3471642 0.3471642
vt1 0.6528358 0.3471642
vt1 0.3471642 0.004055766
vt1 0.3471642 0.3097273
vt1 0.6528358 0.3097273
vt1 0.6528358 0.004055766
vt1 0.6902728 0.3097273
vt1 0.9959443 0.3097273
vt1 0.9959443 0.004055766
vt1 0.6902728 0.004055766
vt1 0.3097273 0.004055766
vt1 0.004055766 0.004055766
vt1 0.004055766 0.3097273
vt1 0.3097273 0.3097273

vt2 0.6909865 0.3471644
vt2 0.9966581 0.3471644
vt2 0.6909865 0.6528358
vt2 0.9966581 0.6528358
vt2 0.3097273 0.3471642
vt2 0.004055766 0.3471642
vt2 0.3471642 0.6528358
vt2 0.6528358 0.6528358
vt2 0.3097273 0.6528358
vt2 0.004055766 0.6528358
vt2 0.3471642 0.3471642
vt2 0.6528358 0.3471642
vt2 0.3471642 0.004055766
vt2 0.3471642 0.3097273
vt2 0.6528358 0.3097273
vt2 0.6528358 0.004055766
vt2 0.6902728 0.3097273
vt2 0.9959443 0.3097273
vt2 0.9959443 0.004055766
vt2 0.6902728 0.004055766
vt2 0.3097273 0.004055766
vt2 0.004055766 0.004055766
vt2 0.004055766 0.3097273
vt2 0.3097273 0.3097273
vt2 0.6909865 0.3471644
vt2 0.9966581 0.3471644
vt2 0.6909865 0.6528358
vt2 0.9966581 0.6528358
vt2 0.3097273 0.3471642
vt2 0.004055766 0.3471642
vt2 0.3471642 0.6528358
vt2 0.6528358 0.6528358
vt2 0.3097273 0.6528358
vt2 0.004055766 0.6528358
vt2 0.3471642 0.3471642
vt2 0.6528358 0.3471642
vt2 0.3471642 0.004055766
vt2 0.3471642 0.3097273
vt2 0.6528358 0.3097273
vt2 0.6528358 0.004055766
vt2 0.6902728 0.3097273
vt2 0.9959443 0.3097273
vt2 0.9959443 0.004055766
vt2 0.6902728 0.004055766
vt2 0.3097273 0.004055766
vt2 0.004055766 0.004055766
vt2 0.004055766 0.3097273
vt2 0.3097273 0.3097273
vt2 0.6909865 0.3471644
vt2 0.9966581 0.3471644
vt2 0.6909865 0.6528358
vt2 0.9966581 0.6528358
vt2 0.3097273 0.3471642
vt2 0.004055766 0.3471642
vt2 0.3471642 0.6528358
vt2 0.6528358 0.6528358
vt2 0.3097273 0.6528358
vt2 0.004055766 0.6528358
vt2 0.3471642 0.3471642
vt2 0.6528358 0.3471642
vt2 0.3471642 0.004055766
vt2 0.3471642 0.3097273
vt2 0.6528358 0.3097273
vt2 0.6528358 0.004055766
vt2 0.6902728 0.3097273
vt2 0.9959443 0.3097273
vt2 0.9959443 0.004055766
vt2 0.6902728 0.004055766
vt2 0.3097273 0.004055766
vt2 0.004055766 0.004055766
vt2 0.004055766 0.3097273
vt2 0.3097273 0.3097273
vt2 0.6909865 0.3471644
vt2 0.9966581 0.3471644
vt2 0.6909865 0.6528358
vt2 0.9966581 0.6528358
vt2 0.3097273 0.3471642
vt2 0.004055766 0.3471642
vt2 0.3471642 0.6528358
vt2 0.6528358 0.6528358
vt2 0.3097273 0.6528358
vt2 0.004055766 0.6528358
vt2 0.3471642 0.3471642
vt2 0.6528358 0.3471642
vt2 0.3471642 0.004055766
vt2 0.3471642 0.3097273
vt2 0.6528358 0.3097273
vt2 0.6528358 0.004055766
vt2 0.6902728 0.3097273
vt2 0.9959443 0.3097273
vt2 0.9959443 0.004055766
vt2 0.6902728 0.004055766
vt2 0.3097273 0.004055766
vt2 0.004055766 0.004055766
vt2 0.004055766 0.3097273
vt2 0.3097273 0.3097273
vt2 0.6909865 0.3471644
vt2 0.9966581 0.3471644
vt2 0.6909865 0.6528358
vt2 0.9966581 0.6528358
vt2 0.3097273 0.3471642
vt2 0.004055766 0.3471642
vt2 0.3471642 0.6528358
vt2 0.6528358 0.6528358
vt2 0.3097273 0.6528358
vt2 0.004055766 0.6528358
vt2 0.3471642 0.3471642
vt2 0.6528358 0.3471642
vt2 0.3471642 0.004055766
vt2 0.3471642 0.3097273
vt2 0.6528358 0.3097273
vt2 0.6528358 0.004055766
vt2 0.6902728 0.3097273
vt2 0.9959443 0.3097273
vt2 0.9959443 0.004055766
vt2 0.6902728 0.004055766
vt2 0.3097273 0.004055766
vt2 0.004055766 0.004055766
vt2 0.004055766 0.3097273
vt2 0.3097273 0.3097273

vc 1 1 1 1
vc 1 1 1 1
vc 1 1 1 1
vc 1 1 1 1
vc 1 1 1 1
vc 1 1 1 1
vc 1 1 1 1
vc 1 1 1 1
vc 1 1 1 1
vc 1 1 1 1
vc 1 1 1 1
vc 1 1 1 1
vc 1 1 1 1
vc 1 1 1 1
vc 1 1 1 1
vc 1 1 1 1
vc 1 1 1 1
vc 1 1 1 1
vc 1 1 1 1
vc 1 1 1 1
vc 1 1 1 1
vc 1 1 1 1
vc 1 1 1 1
vc 1 1 1 1
vc 1 1 1 1
vc 1 1 1 1
vc 1 1 1 1
vc 1 1 1 1
vc 1 1 1 1
vc 1 1 1 1
vc 1 1 1 1
vc 1 1 1 1
vc 1 1 1 1
vc 1 1 1 1
vc 1 1 1 1
vc 1 1 1 1
vc 1 1 1 1
vc 1 1 1 1
vc 1 1 1 1
vc 1 1 1 1
vc 1 1 1 1
vc 1 1 1 1
vc 1 1 1 1
vc 1 1 1 1
vc 1 1 1 1
vc 1 1 1 1
vc 1 1 1 1
vc 1 1 1 1
vc 1 1 1 1
vc 1 1 1 1
vc 1 1 1 1
vc 1 1 1 1
vc 1 1 1 1
vc 1 1 1 1
vc 1 1 1 1
vc 1 1 1 1
vc 1 1 1 1
vc 1 1 1 1
vc 1 1 1 1
vc 1 1 1 1
vc 1 1 1 1
vc 1 1 1 1
vc 1 1 1 1
vc 1 1 1 1
vc 1 1 1 1
vc 1 1 1 1
vc 1 1 1 1
vc 1 1 1 1
vc 1 1 1 1
vc 1 1 1 1
vc 1 1 1 1
vc 1 1 1 1
vc 1 1 1 1
vc 1 1 1 1
vc 1 1 1 1
vc 1 1 1 1
vc 1 1 1 1
vc 1 1 1 1
vc 1 1 1 1
vc 1 1 1 1
vc 1 1 1 1
vc 1 1 1 1
vc 1 1 1 1
vc 1 1 1 1
vc 1 1 1 1
vc 1 1 1 1
vc 1 1 1 1
vc 1 1 1 1
vc 1 1 1 1
vc 1 1 1 1
vc 1 1 1 1
vc 1 1 1 1
vc 1 1 1 1
vc 1 1 1 1
vc 1 1 1 1
vc 1 1 1 1
vc 1 1 1 1
vc 1 1 1 1
vc 1 1 1 1
vc 1 1 1 1
vc 1 1 1 1
vc 1 1 1 1
vc 1 1 1 1
vc 1 1 1 1
vc 1 1 1 1
vc 1 1 1 1
vc 1 1 1 1
vc 1 1 1 1
vc 1 1 1 1
vc 1 1 1 1
vc 1 1 1 1
vc 1 1 1 1
vc 1 1 1 1
vc 1 1 1 1
vc 1 1 1 1
vc 1 1 1 1
vc 1 1 1 1
vc 1 1 1 1
vc 1 1 1 1
vc 1 1 1 1
f 1/1/1 4/4/4 3/3/3
f 1/1/1 2/2/2 4/4/4
f 9/9/9 6/6/6 5/5/5
f 9/9/9 10/10/10 6/6/6
f 11/11/11 8/8/8 7/7/7
f 11/11/11 12/12/12 8/8/8
f 13/13/13 15/15/15 14/14/14
f 13/13/13 16/16/16 15/15/15
f 17/17/17 19/19/19 18/18/18
f 17/17/17 20/20/20 19/19/19
f 21/21/21 23/23/23 22/22/22
f 21/21/21 24/24/24 23/23/23
f 25/25/25 28/28/28 27/27/27
f 25/25/25 26/26/26 28/28/28
f 33/33/33 30/30/30 29/29/29
f 33/33/33 34/34/34 30/30/30
f 35/35/35 32/32/32 31/31/31
f 35/35/35 36/36/36 32/32/32
f 37/37/37 39/39/39 38/38/38
f 37/37/37 40/40/40 39/39/39
f 41/41/41 43/43/43 42/42/42
f 41/41/41 44/44/44 43/43/43
f 45/45/45 47/47/47 46/46/46
f 45/45/45 48/48/48 47/47/47
f 49/49/49 52/52/52 51/51/51
f 49/49/49 50/50/50 52/52/52
f 57/57/57 54/54/54 53/53/53
f 57/57/57 58/58/58 54/54/54
f 59/59/59 56/56/56 55/55/55
f 59/59/59 60/60/60 56/56/56
f 61/61/61 63/63/63 62/62/62
f 61/61/61 64/64/64 63/63/63
f 65/65/65 67/67/67 66/66/66
f 65/65/65 68/68/68 67/67/67
f 69/69/69 71/71/71 70/70/70
f 69/69/69 72/72/72 71/71/71
f 73/73/73 76/76/76 75/75/75
f 73/73/73 74/74/74 76/76/76
f 81/81/81 78/78/78 77/77/77
f 81/81/81 82/82/82 78/78/78
f 83/83/83 80/80/80 79/79/79
f 83/83/83 84/84/84 80/80/80
f 85/85/85 87/87/87 86/86/86
f 85/85/85 88/88/88 87/87/87
f 89/89/89 91/91/91 90/90/90
f 89/89/89 92/92/92 91/91/91
f 93/93/93 95/95/95 94/94/94
f 93/93/93 96/96/96 95/95/95
f 97/97/97 100/100/100 99/99/99
f 97/97/97 98/98/98 100/100/100
f 105/105/105 102/102/102 101/101/101
f 105/105/105 106/106/106 102/102/102
f 107/107/107 104/104/104 103/103/103
f 107/107/107 108/108/108 104/104/104
f 109/109/109 111/111/111 110/110/110
f 109/109/109 112/112/112 111/111/111
f 113/113/113 115/115/115 114/114/114
f 113/113/113 116/116/116 115/115/115
f 117/117/117 119/119/119 118/118/118
f 117/117/117 120/120/120 119/119/119

